<svg width="18" height="18" viewBox="0 0 18 18" fill="none" xmlns="http://www.w3.org/2000/svg">
<path opacity="0.2" fill-rule="evenodd" clip-rule="evenodd" d="M16.875 0C17.4902 0 18 0.509766 18 1.125V16.875C18 17.4902 17.4902 18 16.875 18H12.375V11.0039H14.625L15.0029 8.41113H12.375V6.37207C12.375 5.63379 12.7529 5.21191 13.5 5.21191H15.1875V2.87402C15.1875 2.87402 14.4316 2.75098 13.3418 2.75098C10.8721 2.75098 9.62402 4.12207 9.62402 6.16992V8.41113H7.37402V11.0039H9.62402V18H1.125C0.509766 18 0 17.4902 0 16.875V1.125C0 0.509766 0.509766 0 1.125 0H16.875Z" fill="#31211B"/>
</svg>
