<svg width="18" height="18" viewBox="0 0 18 18" fill="none" xmlns="http://www.w3.org/2000/svg">
<path opacity="0.2" fill-rule="evenodd" clip-rule="evenodd" d="M18 2.62793C18 1.17773 16.8223 0 15.3721 0H2.62793C1.17773 0 0 1.17773 0 2.62793V15.3721C0 16.8223 1.17773 18 2.62793 18H15.3721C16.8223 18 18 16.8223 18 15.3721V2.62793ZM5.625 9C5.625 7.13672 7.13672 5.625 9 5.625C10.8633 5.625 12.375 7.13672 12.375 9C12.375 10.8633 10.8633 12.375 9 12.375C7.13672 12.375 5.625 10.8633 5.625 9ZM16.1279 4.5V2.25C16.1279 2.03906 15.9609 1.87207 15.75 1.87207H13.5C13.2891 1.87207 13.1221 2.03906 13.1221 2.25V4.5C13.1221 4.71094 13.2891 4.87793 13.5 4.87793H15.75C15.9609 4.87793 16.1279 4.71094 16.1279 4.5ZM16.1279 7.875V15.75C16.1279 15.9609 15.9609 16.1279 15.75 16.1279H2.25C2.03906 16.1279 1.87207 15.9609 1.87207 15.75V7.875H3.86719C3.78809 8.23535 3.75293 8.61328 3.75293 9C3.75293 11.9004 6.09961 14.2471 9 14.2471C11.9004 14.2471 14.2471 11.9004 14.2471 9C14.2471 8.61328 14.2119 8.23535 14.1328 7.875H16.1279Z" fill="#31211B"/>
</svg>
