<svg width="18" height="16" viewBox="0 0 18 16" fill="none" xmlns="http://www.w3.org/2000/svg">
<path opacity="0.2" fill-rule="evenodd" clip-rule="evenodd" d="M18 2.22559C17.499 2.98145 16.875 3.62305 16.1631 4.1416V4.625C16.1631 9.50293 12.4541 15.1279 5.66895 15.1279C3.58594 15.1279 1.62598 14.6709 0 13.625C0.290039 13.6689 0.580078 13.6865 0.878906 13.6865C2.60156 13.6865 4.20996 12.9395 5.45801 11.9375C3.8584 11.9199 2.47852 10.8301 2.02148 9.37109C2.25 9.41504 2.47852 9.44141 2.70703 9.44141C3.04102 9.44141 3.375 9.39746 3.69141 9.30957C2.00391 8.97559 0.729492 7.48145 0.729492 5.68848V5.64453C1.23047 5.91699 1.79297 6.08398 2.39941 6.10156C1.39746 5.43359 0.74707 4.30859 0.74707 3.04297C0.74707 2.35742 0.94043 1.79492 1.24805 1.25C3.08496 3.48242 5.79199 4.87109 8.85059 5.03809C8.78906 4.77441 8.77148 4.47559 8.77148 4.18555C8.77148 2.14648 10.415 0.50293 12.4541 0.50293C13.5176 0.50293 14.4756 0.959961 15.1699 1.66309C15.9961 1.49609 16.7959 1.18848 17.499 0.766602C17.2266 1.62793 16.6465 2.35742 15.873 2.81445C16.6289 2.72656 17.332 2.52441 18 2.22559Z" fill="#31211B"/>
</svg>
